<svg width="32" height="32" viewBox="0 0 32 32" fill="none" xmlns="http://www.w3.org/2000/svg">
<circle cx="16" cy="16" r="15.5" stroke="white"/>
<path d="M23.0939 12.5517C22.615 12.7645 22.1095 12.8976 21.5774 12.9774C22.1095 12.6581 22.5352 12.1526 22.7214 11.5407C22.2159 11.8334 21.6572 12.0462 21.0453 12.1792C20.5664 11.6737 19.8747 11.3545 19.1298 11.3545C17.6931 11.3545 16.5225 12.5251 16.5225 13.9617C16.5225 14.1746 16.5491 14.3608 16.6024 14.547C14.4474 14.4406 12.5052 13.403 11.2016 11.8068C10.9888 12.2058 10.8558 12.6315 10.8558 13.1104C10.8558 14.015 11.308 14.8131 12.0264 15.292C11.6007 15.2654 11.2016 15.1589 10.8292 14.9727V14.9993C10.8292 16.2763 11.7337 17.3405 12.9309 17.58C12.7181 17.6332 12.4786 17.6598 12.2392 17.6598C12.0796 17.6598 11.8933 17.6332 11.7337 17.6066C12.0796 18.6441 13.0373 19.4157 14.1813 19.4157C13.2768 20.1074 12.1594 20.5331 10.9356 20.5331C10.7227 20.5331 10.5099 20.5331 10.3237 20.5065C11.4943 21.2514 12.8511 21.6771 14.341 21.6771C19.1564 21.6771 21.7902 17.6864 21.7902 14.2278C21.7902 14.1214 21.7902 13.9883 21.7902 13.8819C22.2957 13.5361 22.748 13.0838 23.0939 12.5517Z" fill="white"/>
</svg>
