<svg width="32" height="32" viewBox="0 0 32 32" fill="none" xmlns="http://www.w3.org/2000/svg">
<circle cx="16" cy="16" r="15.5" stroke="white"/>
<path d="M16.0007 9.65381C18.0678 9.65381 18.3126 9.66155 19.1292 9.69879C19.6202 9.7048 20.1065 9.79495 20.567 9.96533C20.9009 10.0941 21.2042 10.2914 21.4573 10.5445C21.7104 10.7976 21.9077 11.1009 22.0365 11.4348C22.2069 11.8953 22.297 12.3816 22.303 12.8726C22.3399 13.6892 22.348 13.934 22.348 16.0011C22.348 18.0682 22.3403 18.313 22.303 19.1296C22.297 19.6205 22.2069 20.1069 22.0365 20.5674C21.9077 20.9013 21.7104 21.2046 21.4573 21.4577C21.2042 21.7108 20.9009 21.9081 20.567 22.0369C20.1065 22.2072 19.6202 22.2974 19.1292 22.3034C18.313 22.3403 18.0682 22.3484 16.0007 22.3484C13.9333 22.3484 13.6885 22.3406 12.8722 22.3034C12.3813 22.2974 11.895 22.2072 11.4345 22.0369C11.1005 21.9081 10.7972 21.7108 10.5441 21.4577C10.291 21.2046 10.0938 20.9013 9.96496 20.5674C9.79458 20.1069 9.70443 19.6205 9.69842 19.1296C9.66155 18.313 9.65344 18.0682 9.65344 16.0011C9.65344 13.934 9.66119 13.6892 9.69842 12.8726C9.70443 12.3816 9.79458 11.8953 9.96496 11.4348C10.0938 11.1009 10.291 10.7976 10.5441 10.5445C10.7972 10.2914 11.1005 10.0941 11.4345 9.96533C11.895 9.79495 12.3813 9.7048 12.8722 9.69879C13.6888 9.66192 13.9336 9.65381 16.0007 9.65381ZM16.0007 8.25879C13.8993 8.25879 13.6346 8.26764 12.8088 8.30524C12.1663 8.31802 11.5305 8.43969 10.9287 8.66506C10.4123 8.85959 9.94469 9.16443 9.55833 9.55833C9.16408 9.94483 8.85897 10.4127 8.66432 10.9294C8.43895 11.5313 8.31728 12.167 8.3045 12.8096C8.26764 13.6346 8.25879 13.8993 8.25879 16.0007C8.25879 18.1021 8.26764 18.3668 8.30524 19.1926C8.31802 19.8352 8.43969 20.4709 8.66506 21.0728C8.85949 21.5894 9.16435 22.0573 9.55833 22.4439C9.9449 22.8378 10.4128 23.1427 10.9294 23.3371C11.5313 23.5625 12.167 23.6842 12.8096 23.6969C13.6354 23.7338 13.899 23.7434 16.0015 23.7434C18.104 23.7434 18.3675 23.7345 19.1934 23.6969C19.8359 23.6842 20.4717 23.5625 21.0735 23.3371C21.5877 23.1378 22.0545 22.8334 22.4443 22.4434C22.8341 22.0534 23.1382 21.5863 23.3371 21.0721C23.5625 20.4702 23.6842 19.8344 23.6969 19.1919C23.7338 18.3668 23.7427 18.1021 23.7427 16.0007C23.7427 13.8993 23.7338 13.6346 23.6962 12.8088C23.6834 12.1663 23.5618 11.5305 23.3364 10.9287C23.142 10.4121 22.8371 9.94416 22.4431 9.55759C22.0566 9.16361 21.5886 8.85876 21.0721 8.66432C20.4702 8.43895 19.8344 8.31728 19.1919 8.3045C18.3668 8.26764 18.1021 8.25879 16.0007 8.25879Z" fill="white"/>
<path d="M16.0025 12.0264C15.2162 12.0264 14.4476 12.2595 13.7938 12.6964C13.14 13.1332 12.6304 13.7542 12.3295 14.4806C12.0286 15.2071 11.9498 16.0064 12.1032 16.7776C12.2567 17.5489 12.6353 18.2572 13.1913 18.8133C13.7473 19.3693 14.4557 19.7479 15.2269 19.9013C15.9981 20.0547 16.7975 19.976 17.5239 19.6751C18.2504 19.3742 18.8713 18.8646 19.3082 18.2108C19.745 17.557 19.9782 16.7883 19.9782 16.002C19.9782 14.9476 19.5593 13.9364 18.8137 13.1908C18.0682 12.4452 17.0569 12.0264 16.0025 12.0264ZM16.0025 18.5827C15.4921 18.5827 14.9932 18.4313 14.5688 18.1478C14.1444 17.8642 13.8136 17.4612 13.6183 16.9896C13.423 16.5181 13.3719 15.9992 13.4715 15.4986C13.571 14.998 13.8168 14.5382 14.1777 14.1772C14.5386 13.8163 14.9985 13.5706 15.4991 13.471C15.9997 13.3714 16.5185 13.4225 16.9901 13.6178C17.4616 13.8132 17.8647 14.1439 18.1483 14.5683C18.4318 14.9927 18.5832 15.4916 18.5832 16.002C18.5832 16.6865 18.3113 17.3429 17.8273 17.8268C17.3434 18.3108 16.687 18.5827 16.0025 18.5827Z" fill="white"/>
<path d="M20.1346 12.7975C20.6477 12.7975 21.0636 12.3816 21.0636 11.8685C21.0636 11.3554 20.6477 10.9395 20.1346 10.9395C19.6215 10.9395 19.2056 11.3554 19.2056 11.8685C19.2056 12.3816 19.6215 12.7975 20.1346 12.7975Z" fill="white"/>
</svg>
