<svg width="32" height="32" viewBox="0 0 32 32" fill="none" xmlns="http://www.w3.org/2000/svg">
<path fill-rule="evenodd" clip-rule="evenodd" d="M19.1411 2.67757C18.8437 2.63493 18.5449 2.72287 18.3072 2.91207C18.0629 3.10394 17.9102 3.38108 17.877 3.69154C17.8066 4.3191 18.2594 4.88671 18.8862 4.95733C23.2084 5.43967 26.5679 8.80669 27.0539 13.1424C27.119 13.7233 27.6063 14.1617 28.1879 14.1617C28.2317 14.1617 28.2742 14.159 28.318 14.1537C28.6221 14.1204 28.893 13.9698 29.0842 13.73C29.2741 13.4901 29.3604 13.1917 29.3259 12.8866C28.7204 7.47694 24.5336 3.27849 19.1411 2.67757ZM19.2241 7.32024C18.5894 7.20299 18.0065 7.60805 17.8856 8.22762C17.7648 8.84719 18.1711 9.45211 18.7886 9.57336C20.6476 9.93578 22.083 11.3748 22.4469 13.2402V13.2415C22.5504 13.7785 23.0232 14.1689 23.5676 14.1689C23.6406 14.1689 23.7137 14.1622 23.788 14.1489C24.4055 14.025 24.8118 13.4214 24.691 12.8005C24.1479 10.0144 22.0034 7.86254 19.2241 7.32024ZM21.3334 20.1211C21.9354 19.774 22.6153 19.3819 23.4729 19.5644C24.2497 19.7283 26.8975 21.8774 27.6225 22.6223C28.0979 23.1099 28.3621 23.6136 28.4033 24.1172C28.475 26.0932 25.79 28.349 25.3014 28.6301C24.6521 29.0978 23.8965 29.3337 23.048 29.3337C22.1809 29.3337 21.2142 29.0872 20.1599 28.5955C14.4394 26.2078 5.70071 17.6417 3.39022 11.9656C2.4315 9.85237 2.42486 8.10957 3.37428 6.7998C3.75273 6.18556 5.91051 3.61799 7.84256 3.69926C8.35645 3.74323 8.85573 4.00705 9.34571 4.48672C10.0867 5.21289 12.182 7.8684 12.344 8.64787C12.5233 9.51394 12.1303 10.2028 11.781 10.8077C11.7065 10.9378 11.6062 11.0921 11.4962 11.2611C11.0789 11.9028 10.5235 12.7568 10.7201 13.302C12.1289 16.761 15.3835 19.7789 18.844 21.1966C19.3791 21.3911 20.2326 20.8317 20.8722 20.4125C21.0388 20.3033 21.1909 20.2037 21.3191 20.1293L21.3334 20.1211Z" fill="white"/>
</svg>
