<svg width="36" height="36" viewBox="0 0 36 36" fill="none" xmlns="http://www.w3.org/2000/svg">
<path fill-rule="evenodd" clip-rule="evenodd" d="M24.5382 3H11.4618C6.38379 3 3 6.62985 3 11.8398V24.1602C3 29.375 6.37488 33 11.4618 33H24.5382C29.6251 33 33 29.375 33 24.1602V11.8398C33 6.62498 29.6251 3 24.5382 3ZM11.4618 5.09302H24.5382C28.4344 5.09302 30.907 7.74881 30.907 11.8398V24.1602C30.907 28.2512 28.4344 30.907 24.5382 30.907H11.4618C7.56558 30.907 5.09302 28.2512 5.09302 24.1602V11.8398C5.09302 7.75424 7.57384 5.09302 11.4618 5.09302ZM19.0901 10.7684C19.0208 10.2576 18.583 9.8639 18.0532 9.8639C17.4752 9.8639 17.0066 10.3324 17.0066 10.9104V25.063L17.0162 25.205C17.0855 25.7158 17.5233 26.1096 18.0532 26.1096C18.6311 26.1096 19.0997 25.641 19.0997 25.063V10.9104L19.0901 10.7684ZM12.5785 15.3488C12.5092 14.838 12.0713 14.4443 11.5415 14.4443C10.9636 14.4443 10.495 14.9128 10.495 15.4908V25.063L10.5046 25.205C10.5739 25.7159 11.0117 26.1096 11.5415 26.1096C12.1195 26.1096 12.588 25.641 12.588 25.063V15.4908L12.5785 15.3488ZM24.4585 19.5026C24.9883 19.5026 25.4261 19.8963 25.4954 20.4071L25.505 20.5491V25.063C25.505 25.641 25.0364 26.1096 24.4585 26.1096C23.9287 26.1096 23.4908 25.7158 23.4215 25.205L23.412 25.063V20.5491C23.412 19.9711 23.8805 19.5026 24.4585 19.5026Z" fill="#200E32"/>
</svg>
