<svg width="485" height="500" viewBox="0 0 485 500" fill="none" xmlns="http://www.w3.org/2000/svg">
<path d="M101.261 201.085C100.726 202.211 100.101 203.263 99.3854 204.241C98.7211 205.243 97.9776 206.081 97.1547 206.757L88.7095 202.745C89.1791 202.152 89.7096 201.432 90.3009 200.583C90.9165 199.684 91.4188 198.825 91.8079 198.006C92.9022 195.702 93.1552 193.784 92.5667 192.249C92.0025 190.664 91.0448 189.048 89.6937 187.402L84.5578 181.574L92.9301 185.74L38.2967 182.086L43.44 171.261L83.4298 174.639L81.6059 178.478L53.6901 149.687L58.8698 138.785L96.213 178.831C98.4151 181.194 100.098 183.594 101.262 186.029C102.427 188.464 103.009 190.937 103.008 193.446C103.084 195.929 102.501 198.475 101.261 201.085Z" fill="white"/>
<path d="M121.561 137.293C118.384 140.527 114.737 142.744 110.62 143.942C106.543 145.101 102.437 145.197 98.301 144.232C94.2048 143.227 90.4993 141.096 87.1845 137.84C83.8697 134.583 81.6732 130.917 80.595 126.839C79.5566 122.721 79.5801 118.613 80.6656 114.516C81.7512 110.42 83.9022 106.734 87.1188 103.459C90.2957 100.226 93.9226 98.0294 97.9995 96.8711C102.076 95.7128 106.163 95.6364 110.259 96.6417C114.355 97.567 118.08 99.6776 121.435 102.974C124.75 106.23 126.927 109.917 127.965 114.035C129.004 118.153 128.98 122.261 127.895 126.358C126.809 130.455 124.698 134.1 121.561 137.293ZM114.284 130.145C116.031 128.367 117.136 126.393 117.597 124.225C118.099 122.017 117.979 119.794 117.237 117.557C116.496 115.239 115.175 113.147 113.275 111.281C111.334 109.375 109.239 108.111 106.99 107.49C104.74 106.789 102.515 106.708 100.316 107.249C98.1161 107.709 96.1425 108.829 94.3952 110.607C92.6082 112.427 91.4843 114.46 91.0235 116.708C90.5222 118.917 90.6223 121.16 91.3238 123.437C92.0246 125.635 93.3452 127.687 95.2855 129.593C97.1855 131.46 99.2808 132.763 101.571 133.504C103.861 134.165 106.106 134.225 108.305 133.685C110.504 133.144 112.497 131.964 114.284 130.145Z" fill="white"/>
<path d="M161.622 107.474C158.421 109.054 155.275 109.722 152.184 109.478C149.144 109.209 146.362 108.117 143.838 106.203C141.365 104.265 139.288 101.593 137.607 98.1884L125.08 72.8065L135.065 67.8783L147.179 92.4217C148.031 94.1494 149.114 95.5108 150.427 96.506C151.765 97.4252 153.257 97.9524 154.904 98.0877C156.576 98.147 158.225 97.7754 159.852 96.9728C161.478 96.1703 162.75 95.0998 163.67 93.7614C164.564 92.3722 165.04 90.8414 165.1 89.1691C165.159 87.4968 164.737 85.746 163.834 83.9167L151.834 59.602L161.819 54.6738L182.284 96.1384L172.832 100.803L168.807 92.6475L170.36 93.6819C170.649 96.6992 169.989 99.3947 168.38 101.769C166.822 104.117 164.569 106.019 161.622 107.474Z" fill="white"/>
<path d="M194.614 93.234L185.811 47.8397L196.075 45.8493L198.033 55.9462L196.907 54.606C197.306 51.0076 198.489 48.3251 200.455 46.5584C202.477 44.781 205.074 43.5848 208.245 42.9699L210.915 42.4521L212.792 52.1318L208.87 52.8923C205.755 53.4964 203.44 54.9554 201.926 57.2693C200.402 59.5275 199.974 62.3812 200.643 65.8302L205.546 91.1142L194.614 93.234Z" fill="white"/>
<path d="M268.944 92.689C264.444 91.7824 260.596 89.9377 257.399 87.1549C254.269 84.3277 252.035 80.9294 250.696 76.9601C249.368 72.9352 249.157 68.673 250.064 64.1734C250.97 59.6738 252.809 55.8535 255.581 52.7123C258.353 49.5712 261.723 47.3311 265.693 45.992C269.717 44.6641 273.98 44.4534 278.479 45.36C281.701 46.0091 284.583 47.1967 287.126 48.9229C289.68 50.5935 291.755 52.6301 293.352 55.0329C295.015 57.3912 296.017 60.0209 296.358 62.922L285.936 65.1577C285.562 62.7122 284.514 60.5937 282.794 58.802C281.13 57.0215 279.02 55.8739 276.465 55.359C274.076 54.8778 271.82 55.0302 269.696 55.8162C267.628 56.6135 265.859 57.9334 264.39 59.7762C262.92 61.6189 261.917 63.8734 261.379 66.5399C260.842 69.2063 260.894 71.6735 261.536 73.9415C262.177 76.2095 263.297 78.1115 264.895 79.6474C266.549 81.1945 268.57 82.2086 270.958 82.6899C273.569 83.2159 275.987 82.9804 278.211 81.9833C280.435 80.9863 282.199 79.4051 283.502 77.2399L292.211 83.5034C290.808 85.8797 288.899 87.894 286.485 89.5465C284.082 91.1434 281.375 92.2453 278.362 92.8523C275.361 93.4037 272.221 93.3493 268.944 92.689Z" fill="white"/>
<path d="M299.246 101.091L318.938 59.2533L329.013 63.9953L309.321 105.833L299.246 101.091ZM321.146 54.562L326.214 43.795L336.288 48.5369L331.221 59.3039L321.146 54.562Z" fill="white"/>
<path d="M321.199 112.236L348.202 74.6991L356.689 80.8045L350.683 89.1536L350.886 87.4153C353.779 85.238 356.542 84.2591 359.177 84.4788C361.857 84.7315 364.508 85.801 367.13 87.6872L369.338 89.2756L363.58 97.2797L360.337 94.9468C357.761 93.0936 355.112 92.4095 352.39 92.8944C349.701 93.3333 347.33 94.9788 345.278 97.8309L330.238 118.738L321.199 112.236Z" fill="white"/>
<path d="M361.55 150.131C358.673 146.555 356.897 142.674 356.223 138.49C355.628 134.315 356.086 130.274 357.598 126.367C359.154 122.424 361.72 119.015 365.297 116.138C368.873 113.261 372.732 111.503 376.872 110.864C381.012 110.225 385.035 110.661 388.942 112.173C392.884 113.729 396.294 116.295 399.171 119.872C401.231 122.433 402.685 125.19 403.533 128.144C404.426 131.062 404.717 133.955 404.406 136.823C404.175 139.7 403.261 142.362 401.666 144.809L392.228 139.855C393.505 137.737 394.057 135.439 393.882 132.961C393.743 130.528 392.856 128.296 391.223 126.265C389.695 124.366 387.864 123.039 385.73 122.283C383.63 121.572 381.426 121.454 379.118 121.929C376.809 122.404 374.595 123.494 372.476 125.199C370.356 126.904 368.817 128.833 367.858 130.986C366.899 133.139 366.542 135.317 366.787 137.52C367.067 139.767 367.971 141.84 369.498 143.739C371.167 145.814 373.175 147.18 375.522 147.838C377.869 148.495 380.236 148.409 382.624 147.58L385.306 157.967C382.707 158.894 379.951 159.22 377.039 158.945C374.17 158.634 371.385 157.747 368.682 156.285C366.023 154.788 363.646 152.737 361.55 150.131Z" fill="white"/>
<path d="M379.454 175.982L437.771 148.792L442.477 158.884L384.159 186.074L379.454 175.982Z" fill="white"/>
<path d="M393.148 219.337C392.238 214.665 392.499 210.371 393.93 206.455C395.362 202.539 397.695 199.256 400.932 196.605C404.168 193.955 407.983 192.201 412.378 191.346C416.939 190.458 421.161 190.646 425.044 191.91C428.994 193.22 432.328 195.37 435.046 198.363C437.776 201.41 439.552 205.048 440.375 209.275C441.069 212.835 441.091 216.064 440.443 218.961C439.805 221.914 438.642 224.536 436.952 226.828C435.262 229.12 433.18 231.026 430.705 232.548C428.286 234.058 425.546 235.111 422.487 235.706C421.709 235.858 420.891 235.959 420.035 236.011C419.19 236.117 418.44 236.119 417.785 236.016L410.962 200.974L419.305 199.349L424.926 228.217L419.997 223.808C422.653 223.81 424.907 223.227 426.758 222.059C428.619 220.946 429.966 219.413 430.798 217.462C431.642 215.565 431.83 213.422 431.365 211.03C430.921 208.749 429.941 206.833 428.427 205.28C426.968 203.717 425.034 202.679 422.625 202.167C420.282 201.699 417.575 201.88 414.503 202.709C411.679 203.028 409.274 203.871 407.289 205.239C405.37 206.652 404.011 208.418 403.211 210.536C402.422 212.711 402.272 215.049 402.759 217.552C403.246 220.055 404.186 222.066 405.579 223.585C406.982 225.159 408.671 226.273 410.646 226.928L408.03 236.616C405.687 236.149 403.497 235.132 401.46 233.566C399.424 231.999 397.678 230.001 396.223 227.571C394.779 225.197 393.754 222.452 393.148 219.337Z" fill="white"/>
<path d="M390.245 291.799C391.453 287.43 393.566 283.722 396.584 280.676C399.586 277.685 403.13 275.608 407.214 274.444C411.284 273.336 415.558 273.401 420.036 274.639C424.515 275.878 428.215 278.018 431.136 281.06C434.043 284.157 436.015 287.76 437.055 291.868C438.094 295.977 438.001 300.244 436.778 304.668C435.57 309.037 433.464 312.717 430.462 315.709C427.459 318.7 423.923 320.75 419.854 321.859C415.824 323.037 411.542 323 407.009 321.746C402.53 320.507 398.838 318.34 395.931 315.243C393.025 312.146 391.052 308.543 390.013 304.435C388.974 300.326 389.051 296.114 390.245 291.799ZM400.076 294.518C399.411 296.921 399.403 299.182 400.051 301.302C400.685 303.476 401.868 305.361 403.602 306.958C405.376 308.624 407.546 309.812 410.113 310.522C412.734 311.247 415.179 311.335 417.448 310.787C419.755 310.308 421.74 309.299 423.4 307.759C425.1 306.289 426.282 304.352 426.947 301.949C427.627 299.491 427.622 297.168 426.934 294.979C426.301 292.804 425.125 290.892 423.406 289.241C421.727 287.659 419.577 286.506 416.955 285.781C414.388 285.071 411.923 284.948 409.561 285.412C407.238 285.945 405.246 286.982 403.586 288.522C401.925 290.061 400.755 292.06 400.076 294.518Z" fill="#7854F7"/>
<path d="M376.115 328.964L406.872 348.234L411.204 341.319L419.632 346.599L415.299 353.514L416.596 354.327C419.573 356.192 421.718 358.372 423.031 360.866C424.361 363.438 424.887 366.175 424.607 369.076C424.328 371.977 423.24 374.94 421.345 377.965C420.984 378.541 420.545 379.136 420.028 379.748C419.528 380.438 419.08 380.993 418.683 381.413L410.544 376.313C410.941 375.893 411.275 375.467 411.545 375.035C411.834 374.681 412.084 374.336 412.294 374C413.618 371.887 414.161 369.953 413.922 368.199C413.732 366.475 412.653 364.996 410.684 363.763L409.387 362.95L403.927 371.666L395.499 366.386L400.96 357.67L370.203 338.4L376.115 328.964Z" fill="#7854F7"/>
<path d="M327.004 380.958C330.908 378.234 334.939 376.733 339.099 376.456C343.259 376.179 347.206 376.983 350.941 378.869C354.675 380.755 357.823 383.533 360.385 387.204C363.044 391.015 364.582 394.951 364.998 399.014C365.401 403.156 364.784 407.075 363.15 410.773C361.468 414.503 358.862 417.6 355.33 420.064C352.356 422.14 349.413 423.468 346.501 424.049C343.543 424.662 340.674 424.66 337.894 424.043C335.115 423.426 332.528 422.294 330.135 420.647C327.775 419.047 325.702 416.969 323.919 414.413C323.465 413.762 323.041 413.056 322.648 412.294C322.208 411.564 321.902 410.879 321.732 410.238L351.008 389.809L355.872 396.779L331.754 413.61L333.79 407.318C334.863 409.747 336.309 411.571 338.127 412.79C339.898 414.042 341.845 414.653 343.966 414.623C346.042 414.626 348.078 413.931 350.076 412.536C351.982 411.207 353.337 409.535 354.144 407.521C354.982 405.554 355.148 403.366 354.641 400.956C354.119 398.624 352.858 396.223 350.856 393.75C349.421 391.297 347.675 389.439 345.621 388.178C343.552 386.996 341.387 386.468 339.126 386.595C336.819 386.754 334.619 387.563 332.528 389.023C330.437 390.482 328.979 392.156 328.155 394.044C327.284 395.964 326.949 397.96 327.15 400.031L317.232 401.562C316.711 399.231 316.754 396.817 317.361 394.32C317.968 391.824 319.088 389.418 320.721 387.104C322.307 384.823 324.402 382.774 327.004 380.958Z" fill="#7854F7"/>
<path d="M304.086 397.085L295.263 423.945L317.419 441.362L304.878 445.113L287.385 430.827L293.004 429.146L286.229 450.691L273.77 454.418L282.641 427.721L260.6 410.094L273.059 406.366L290.365 420.62L284.909 422.252L291.545 400.837L304.086 397.085Z" fill="#7854F7"/>
<path d="M253.602 394.307L250.928 457.49L240.483 457.048L240.871 447.876L241.793 450.212C240.102 452.637 237.869 454.47 235.094 455.714C232.317 457.015 229.145 457.589 225.578 457.438C221.219 457.254 217.329 456.012 213.91 453.712C210.491 451.412 207.839 448.407 205.954 444.697C204.013 440.985 203.138 436.865 203.329 432.335C203.519 427.863 204.71 423.829 206.904 420.236C209.098 416.642 211.996 413.843 215.597 411.841C219.196 409.894 223.232 409.016 227.704 409.205C231.045 409.347 234.103 410.128 236.878 411.55C239.595 413.026 241.722 415.045 243.258 417.605L241.381 419.738L242.477 393.836L253.602 394.307ZM228.547 419.45C225.999 419.342 223.709 419.841 221.677 420.946C219.646 422.051 218.047 423.628 216.883 425.677C215.662 427.724 214.994 430.106 214.879 432.824C214.764 435.542 215.23 437.943 216.276 440.03C217.263 442.17 218.722 443.876 220.653 445.149C222.582 446.479 224.82 447.197 227.368 447.305C229.803 447.408 232.036 446.907 234.068 445.802C236.043 444.694 237.642 443.089 238.866 440.985C240.03 438.936 240.668 436.581 240.781 433.92C240.896 431.203 240.46 428.774 239.473 426.633C238.429 424.491 236.97 422.784 235.095 421.514C233.164 420.241 230.981 419.553 228.547 419.45Z" fill="#7854F7"/>
<path d="M174.532 397.179C178.935 398.987 182.379 401.565 184.864 404.913C187.349 408.261 188.809 412.015 189.244 416.176C189.68 420.336 189.048 424.487 187.348 428.629C185.583 432.927 183.105 436.351 179.914 438.9C176.65 441.48 173.02 443.084 169.026 443.71C164.98 444.315 160.965 443.8 156.981 442.164C153.626 440.787 150.917 439.031 148.852 436.897C146.736 434.742 145.184 432.328 144.199 429.657C143.213 426.986 142.764 424.198 142.854 421.295C142.922 418.444 143.548 415.576 144.732 412.693C145.033 411.959 145.397 411.221 145.825 410.478C146.2 409.713 146.611 409.085 147.058 408.595L180.082 422.154L176.854 430.017L149.648 418.847L156.04 417.153C154.578 419.37 153.827 421.573 153.786 423.762C153.693 425.929 154.233 427.896 155.406 429.664C156.526 431.411 158.214 432.747 160.468 433.672C162.617 434.555 164.756 434.79 166.886 434.378C168.994 434.018 170.924 432.973 172.676 431.242C174.354 429.542 175.691 427.181 176.686 424.159C177.972 421.624 178.589 419.152 178.537 416.742C178.412 414.362 177.684 412.256 176.353 410.424C174.97 408.569 173.1 407.158 170.741 406.19C168.382 405.221 166.185 404.901 164.151 405.23C162.065 405.537 160.206 406.336 158.573 407.626L151.917 400.115C153.595 398.415 155.649 397.145 158.077 396.304C160.504 395.463 163.133 395.103 165.963 395.223C168.74 395.322 171.597 395.974 174.532 397.179Z" fill="#7854F7"/>
<path d="M145.368 383.022L116.935 419.487L108.69 413.058L115.014 404.947L114.744 406.676C111.769 408.74 108.97 409.612 106.346 409.29C103.678 408.934 101.07 407.763 98.5229 405.777L96.3779 404.104L102.441 396.329L105.591 398.785C108.094 400.737 110.715 401.523 113.454 401.143C116.158 400.809 118.59 399.256 120.75 396.485L136.587 376.175L145.368 383.022Z" fill="#7854F7"/>
<path d="M106.274 344.483C109.571 348.522 111.036 352.556 110.669 356.587C110.222 360.609 107.979 364.269 103.941 367.566L88.1383 380.467L93.1911 386.656L85.4873 392.945L84.9498 392.287C83.5163 390.531 81.9445 389.546 80.2343 389.333C78.5241 389.12 76.791 389.73 75.0352 391.164L72.2697 393.421L65.2279 384.796L73.3927 378.13L66.6734 369.9L74.3772 363.61L81.0965 371.841L96.4383 359.316C97.6235 358.349 98.4718 357.327 98.9834 356.251C99.459 355.131 99.558 353.953 99.2802 352.717C98.9666 351.437 98.2365 350.094 97.0897 348.689C96.8389 348.382 96.5302 348.049 96.1638 347.69C95.7616 347.287 95.3772 346.905 95.0108 346.546L102.385 340.526C102.975 341.069 103.636 341.699 104.369 342.418C105.102 343.136 105.737 343.825 106.274 344.483Z" fill="#7854F7"/>
<path d="M89.8273 314.816C91.8659 319.304 92.5892 323.706 91.9969 328.02C91.3297 332.307 89.4457 335.901 86.3448 338.803L79.2627 332.87C81.144 330.709 82.3218 328.369 82.7963 325.851C83.2473 323.281 82.9338 320.809 81.8559 318.436C81.0123 316.579 79.9317 315.296 78.6141 314.587C77.2965 313.879 75.967 313.829 74.6255 314.438C73.8 314.813 73.2347 315.35 72.9297 316.049C72.5496 316.719 72.3547 317.523 72.345 318.461C72.2603 319.371 72.2882 320.323 72.4286 321.317L73.6221 329.084C74.2071 333.113 73.8637 336.536 72.5919 339.354C71.2967 342.121 69.2044 344.16 66.3152 345.472C63.7354 346.644 61.1981 347.019 58.7033 346.596C56.1335 346.145 53.7795 345.004 51.6416 343.175C49.4802 341.293 47.7082 338.831 46.3256 335.787C44.5213 331.814 43.8823 327.872 44.4088 323.961C44.9352 320.05 46.6339 316.664 49.5049 313.804L56.6573 319.892C55.0764 321.481 54.105 323.385 53.7432 325.603C53.3815 327.821 53.6809 329.988 54.6417 332.103C55.415 333.806 56.4112 334.971 57.6304 335.6C58.8495 336.229 60.0782 336.262 61.3165 335.7C62.0904 335.348 62.6674 334.837 63.0475 334.167C63.4276 333.496 63.6341 332.718 63.6672 331.831C63.6769 330.894 63.6139 329.864 63.4782 328.743L62.4324 321.096C61.8943 317.171 62.2353 313.811 63.4555 311.016C64.6523 308.17 66.7469 306.067 69.7394 304.708C72.2675 303.559 74.8165 303.211 77.3864 303.662C79.9046 304.136 82.2445 305.314 84.4059 307.195C86.5673 309.077 88.3744 311.617 89.8273 314.816Z" fill="#7854F7"/>
</svg>
