<svg width="84" height="16" viewBox="0 0 84 16" fill="none" xmlns="http://www.w3.org/2000/svg">
<path d="M7.08 15.38C6.05333 15.38 5.10667 15.2067 4.24 14.86C3.37333 14.5 2.62 14 1.98 13.36C1.35333 12.7067 0.866667 11.94 0.52 11.06C0.173333 10.18 0 9.21333 0 8.16C0 7.04 0.193333 5.98667 0.58 5C0.98 4.01333 1.54 3.14667 2.26 2.4C2.98 1.65333 3.82667 1.06667 4.8 0.64C5.77333 0.213333 6.84 0 8 0C9.09333 0 10.06 0.186667 10.9 0.56C11.7533 0.92 12.46 1.40667 13.02 2.02C13.58 2.62 13.9667 3.28667 14.18 4.02L11.36 5.26C11.1467 4.54 10.7467 3.95333 10.16 3.5C9.57333 3.03333 8.82 2.8 7.9 2.8C7.20667 2.8 6.56667 2.93333 5.98 3.2C5.40667 3.46667 4.9 3.84667 4.46 4.34C4.03333 4.82 3.7 5.38667 3.46 6.04C3.22 6.69333 3.1 7.40667 3.1 8.18C3.1 9.07333 3.26 9.85333 3.58 10.52C3.91333 11.1733 4.37333 11.68 4.96 12.04C5.56 12.4 6.26 12.58 7.06 12.58C8.02 12.58 8.84 12.34 9.52 11.86C10.2 11.3667 10.6933 10.76 11 10.04L13.68 11.44C13.3733 12.1733 12.9 12.84 12.26 13.44C11.6333 14.0267 10.88 14.5 10 14.86C9.12 15.2067 8.14667 15.38 7.08 15.38Z" fill="#7854F7"/>
<path d="M15.1217 15.14L16.6417 4.22H19.6617L18.1417 15.14H15.1217ZM16.7817 3.24L17.2017 0.239999H20.2217L19.8017 3.24H16.7817Z" fill="#7854F7"/>
<path d="M20.5366 15.14L22.0566 4.22H24.8766L24.5166 6.84L24.3566 6.46C24.7299 5.54 25.2099 4.92 25.7966 4.6C26.3966 4.26667 27.0766 4.1 27.8366 4.1H28.4766L28.1166 6.7H27.1766C26.4432 6.7 25.8166 6.93333 25.2966 7.4C24.7899 7.86667 24.4699 8.55333 24.3366 9.46L23.5566 15.14H20.5366Z" fill="#7854F7"/>
<path d="M34.2914 15.38C33.2381 15.38 32.2914 15.1467 31.4514 14.68C30.6247 14.2133 29.9714 13.5733 29.4914 12.76C29.0247 11.9467 28.7914 11.0267 28.7914 10C28.7914 9.16 28.9514 8.37333 29.2714 7.64C29.5914 6.90667 30.0314 6.26667 30.5914 5.72C31.1514 5.17333 31.7981 4.74667 32.5314 4.44C33.2781 4.13333 34.0781 3.98 34.9314 3.98C35.7581 3.98 36.5114 4.12667 37.1914 4.42C37.8714 4.7 38.4447 5.09333 38.9114 5.6C39.3781 6.10667 39.6981 6.7 39.8714 7.38L37.2114 8.42C37.0647 7.87333 36.7847 7.44667 36.3714 7.14C35.9581 6.83333 35.4647 6.68 34.8914 6.68C34.2914 6.68 33.7647 6.83333 33.3114 7.14C32.8714 7.44667 32.5247 7.85333 32.2714 8.36C32.0314 8.86667 31.9114 9.41333 31.9114 10C31.9114 10.5333 32.0114 11 32.2114 11.4C32.4114 11.8 32.6914 12.1133 33.0514 12.34C33.4247 12.5667 33.8514 12.68 34.3314 12.68C34.9581 12.68 35.5047 12.5133 35.9714 12.18C36.4381 11.8467 36.7847 11.4067 37.0114 10.86L39.5514 12.08C39.2981 12.72 38.9114 13.2933 38.3914 13.8C37.8847 14.2933 37.2781 14.68 36.5714 14.96C35.8647 15.24 35.1047 15.38 34.2914 15.38Z" fill="#7854F7"/>
<path d="M46.9928 15.38C45.9528 15.38 45.0128 15.1533 44.1728 14.7C43.3328 14.2333 42.6661 13.5933 42.1728 12.78C41.6795 11.9667 41.4328 11.04 41.4328 10C41.4328 9.16 41.5928 8.37333 41.9128 7.64C42.2328 6.90667 42.6795 6.26667 43.2528 5.72C43.8261 5.17333 44.4861 4.74667 45.2328 4.44C45.9795 4.13333 46.7795 3.98 47.6328 3.98C48.6728 3.98 49.6128 4.21333 50.4528 4.68C51.2928 5.13333 51.9528 5.76667 52.4328 6.58C52.9261 7.38 53.1728 8.30667 53.1728 9.36C53.1728 10.2 53.0128 10.9867 52.6928 11.72C52.3728 12.44 51.9261 13.08 51.3528 13.64C50.7795 14.1867 50.1195 14.6133 49.3728 14.92C48.6261 15.2267 47.8328 15.38 46.9928 15.38ZM47.0328 12.68C47.6328 12.68 48.1595 12.5333 48.6128 12.24C49.0661 11.9333 49.4195 11.5267 49.6728 11.02C49.9261 10.5133 50.0528 9.94667 50.0528 9.32C50.0528 8.8 49.9528 8.34667 49.7528 7.96C49.5528 7.56 49.2661 7.24667 48.8928 7.02C48.5328 6.79333 48.0995 6.68 47.5928 6.68C46.9928 6.68 46.4595 6.83333 45.9928 7.14C45.5395 7.43333 45.1861 7.83333 44.9328 8.34C44.6795 8.84667 44.5528 9.41333 44.5528 10.04C44.5528 10.56 44.6528 11.02 44.8528 11.42C45.0528 11.8067 45.3395 12.1133 45.7128 12.34C46.0861 12.5667 46.5261 12.68 47.0328 12.68Z" fill="#7854F7"/>
<path d="M54.3983 15.14L55.9183 4.22H58.7183L58.4383 6.38L58.3183 5.82C58.665 5.16667 59.1249 4.7 59.6983 4.42C60.2849 4.12667 60.9449 3.98 61.6783 3.98C62.5183 3.98 63.2316 4.18 63.8183 4.58C64.405 4.96667 64.8316 5.49333 65.0983 6.16C65.3783 6.82667 65.4583 7.57333 65.3383 8.4L64.3983 15.14H61.3983L62.2783 8.76C62.3716 8.13333 62.2583 7.63333 61.9383 7.26C61.6183 6.87333 61.1649 6.68 60.5783 6.68C60.1916 6.68 59.8316 6.76667 59.4983 6.94C59.1783 7.11333 58.9116 7.35333 58.6983 7.66C58.4849 7.96667 58.3449 8.33333 58.2783 8.76L57.3983 15.14H54.3983Z" fill="#7854F7"/>
<path d="M68.9109 6.34L69.1109 4.84C69.6043 4.73333 70.0176 4.54 70.3509 4.26C70.6976 3.96667 70.9376 3.62667 71.0709 3.24H69.7309L70.1509 0.239999H73.1509L72.9109 1.98C72.7509 3.15333 72.3309 4.12 71.6509 4.88C70.9709 5.62667 70.0576 6.11333 68.9109 6.34Z" fill="#7854F7"/>
<path d="M78.9258 15.38C78.1391 15.38 77.4124 15.2467 76.7458 14.98C76.0924 14.7133 75.5458 14.34 75.1058 13.86C74.6658 13.38 74.3725 12.82 74.2258 12.18L76.4858 11.26C76.7125 11.8333 77.0391 12.28 77.4658 12.6C77.9058 12.92 78.4191 13.08 79.0058 13.08C79.4991 13.08 79.8658 12.98 80.1058 12.78C80.3591 12.58 80.4858 12.34 80.4858 12.06C80.4858 11.7667 80.3791 11.56 80.1658 11.44C79.9525 11.3067 79.7524 11.2133 79.5658 11.16L77.7458 10.64C76.9458 10.4133 76.3258 10.04 75.8858 9.52C75.4591 8.98667 75.2458 8.35333 75.2458 7.62C75.2458 6.91333 75.4324 6.28667 75.8058 5.74C76.1925 5.19333 76.7191 4.76667 77.3858 4.46C78.0524 4.14 78.8058 3.98 79.6458 3.98C80.7391 3.98 81.6658 4.24 82.4258 4.76C83.1991 5.28 83.7124 5.99333 83.9658 6.9L81.6658 7.82C81.5725 7.38 81.3191 7.03333 80.9058 6.78C80.4925 6.51333 80.0391 6.38 79.5458 6.38C79.1325 6.38 78.7924 6.46667 78.5258 6.64C78.2724 6.8 78.1458 7.03333 78.1458 7.34C78.1458 7.63333 78.2591 7.84667 78.4858 7.98C78.7125 8.11333 78.9458 8.21333 79.1858 8.28L80.8658 8.8C81.6925 9.05333 82.3191 9.43333 82.7458 9.94C83.1858 10.4467 83.4058 11.0533 83.4058 11.76C83.4058 12.44 83.2124 13.0533 82.8258 13.6C82.4524 14.1467 81.9258 14.58 81.2458 14.9C80.5791 15.22 79.8058 15.38 78.9258 15.38Z" fill="#7854F7"/>
</svg>
