<svg width="333" height="251" viewBox="0 0 333 251" fill="none" xmlns="http://www.w3.org/2000/svg">
<circle cx="4.12565" cy="246.159" r="4.12556" transform="rotate(-90 4.12565 246.159)" fill="#7854F7"/>
<circle cx="4.12556" cy="185.651" r="4.12556" transform="rotate(-90 4.12556 185.651)" fill="#7854F7"/>
<circle cx="4.12556" cy="125.142" r="4.12556" transform="rotate(-90 4.12556 125.142)" fill="#7854F7"/>
<circle cx="4.12556" cy="64.6342" r="4.12556" transform="rotate(-90 4.12556 64.6342)" fill="#7854F7"/>
<circle cx="4.12556" cy="4.12591" r="4.12556" transform="rotate(-90 4.12556 4.12591)" fill="#7854F7"/>
<circle cx="64.6338" cy="246.159" r="4.12556" transform="rotate(-90 64.6338 246.159)" fill="#7854F7"/>
<circle cx="64.6338" cy="185.651" r="4.12556" transform="rotate(-90 64.6338 185.651)" fill="#7854F7"/>
<circle cx="64.6338" cy="125.142" r="4.12556" transform="rotate(-90 64.6338 125.142)" fill="#7854F7"/>
<circle cx="64.6338" cy="64.6342" r="4.12556" transform="rotate(-90 64.6338 64.6342)" fill="#7854F7"/>
<circle cx="64.6338" cy="4.12591" r="4.12556" transform="rotate(-90 64.6338 4.12591)" fill="#7854F7"/>
<circle cx="125.142" cy="246.159" r="4.12556" transform="rotate(-90 125.142 246.159)" fill="#7854F7"/>
<circle cx="125.142" cy="185.651" r="4.12556" transform="rotate(-90 125.142 185.651)" fill="#7854F7"/>
<circle cx="125.142" cy="125.142" r="4.12556" transform="rotate(-90 125.142 125.142)" fill="#7854F7"/>
<circle cx="125.142" cy="64.6342" r="4.12556" transform="rotate(-90 125.142 64.6342)" fill="#7854F7"/>
<circle cx="125.142" cy="4.12591" r="4.12556" transform="rotate(-90 125.142 4.12591)" fill="#7854F7"/>
<circle cx="185.65" cy="246.159" r="4.12556" transform="rotate(-90 185.65 246.159)" fill="#7854F7"/>
<circle cx="185.65" cy="185.651" r="4.12556" transform="rotate(-90 185.65 185.651)" fill="#7854F7"/>
<circle cx="185.65" cy="125.142" r="4.12556" transform="rotate(-90 185.65 125.142)" fill="#7854F7"/>
<circle cx="185.65" cy="64.6342" r="4.12556" transform="rotate(-90 185.65 64.6342)" fill="#7854F7"/>
<circle cx="185.65" cy="4.12591" r="4.12556" transform="rotate(-90 185.65 4.12591)" fill="#7854F7"/>
<circle cx="246.158" cy="246.159" r="4.12556" transform="rotate(-90 246.158 246.159)" fill="#7854F7"/>
<circle cx="246.158" cy="185.651" r="4.12556" transform="rotate(-90 246.158 185.651)" fill="#7854F7"/>
<circle cx="246.158" cy="125.142" r="4.12556" transform="rotate(-90 246.158 125.142)" fill="#7854F7"/>
<circle cx="246.158" cy="64.6342" r="4.12556" transform="rotate(-90 246.158 64.6342)" fill="#7854F7"/>
<circle cx="246.158" cy="4.12591" r="4.12556" transform="rotate(-90 246.158 4.12591)" fill="#7854F7"/>
<circle cx="306.667" cy="246.159" r="4.12556" transform="rotate(-90 306.667 246.159)" fill="#7854F7"/>
<circle cx="306.667" cy="185.651" r="4.12556" transform="rotate(-90 306.667 185.651)" fill="#7854F7"/>
<circle cx="306.667" cy="125.142" r="4.12556" transform="rotate(-90 306.667 125.142)" fill="#7854F7"/>
<circle cx="306.667" cy="64.6342" r="4.12556" transform="rotate(-90 306.667 64.6342)" fill="#7854F7"/>
<circle cx="306.667" cy="4.12591" r="4.12556" transform="rotate(-90 306.667 4.12591)" fill="#7854F7"/>
</svg>
