<svg width="204" height="1887" viewBox="0 0 204 1887" fill="none" xmlns="http://www.w3.org/2000/svg">
<circle cx="17.6336" cy="4.12556" r="4.12556" fill="#9AC9FD"/>
<circle cx="78.142" cy="4.12556" r="4.12556" fill="#9AC9FD"/>
<circle cx="138.65" cy="4.12556" r="4.12556" fill="#9AC9FD"/>
<circle cx="199.159" cy="4.12556" r="4.12556" fill="#9AC9FD"/>
<circle cx="17.6336" cy="64.6339" r="4.12556" fill="#9AC9FD"/>
<circle cx="78.142" cy="64.6339" r="4.12556" fill="#9AC9FD"/>
<circle cx="138.65" cy="64.6339" r="4.12556" fill="#9AC9FD"/>
<circle cx="199.159" cy="64.6339" r="4.12556" fill="#9AC9FD"/>
<circle cx="17.6336" cy="125.142" r="4.12556" fill="#9AC9FD"/>
<circle cx="78.142" cy="125.142" r="4.12556" fill="#9AC9FD"/>
<circle cx="138.65" cy="125.142" r="4.12556" fill="#9AC9FD"/>
<circle cx="199.159" cy="125.142" r="4.12556" fill="#9AC9FD"/>
<circle cx="55.1256" cy="1822.13" r="4.12556" fill="#7854F7"/>
<circle cx="115.634" cy="1822.13" r="4.12556" fill="#7854F7"/>
<circle cx="176.142" cy="1822.13" r="4.12556" fill="#7854F7"/>
<circle cx="55.1256" cy="1882.63" r="4.12556" fill="#7854F7"/>
<circle cx="115.634" cy="1882.63" r="4.12556" fill="#7854F7"/>
<circle cx="176.142" cy="1882.63" r="4.12556" fill="#7854F7"/>
<circle cx="17.6336" cy="185.65" r="4.12556" fill="#9AC9FD"/>
<circle cx="78.142" cy="185.65" r="4.12556" fill="#9AC9FD"/>
<circle cx="138.65" cy="185.65" r="4.12556" fill="#9AC9FD"/>
<circle cx="199.159" cy="185.65" r="4.12556" fill="#9AC9FD"/>
<circle cx="17.6336" cy="246.158" r="4.12556" fill="white"/>
<circle cx="78.142" cy="246.158" r="4.12556" fill="white"/>
<circle cx="138.65" cy="246.158" r="4.12556" fill="white"/>
<circle cx="199.159" cy="246.158" r="4.12556" fill="white"/>
<circle cx="17.6336" cy="306.667" r="4.12556" fill="white"/>
<circle cx="78.142" cy="306.667" r="4.12556" fill="white"/>
<circle cx="138.65" cy="306.667" r="4.12556" fill="white"/>
<circle cx="199.159" cy="306.667" r="4.12556" fill="white"/>
<circle cx="17.6336" cy="367.175" r="4.12556" fill="white"/>
<circle cx="78.142" cy="367.175" r="4.12556" fill="white"/>
<circle cx="138.65" cy="367.175" r="4.12556" fill="white"/>
<circle cx="199.159" cy="367.175" r="4.12556" fill="white"/>
<circle cx="17.6336" cy="427.683" r="4.12556" fill="white"/>
<circle cx="78.142" cy="427.683" r="4.12556" fill="white"/>
<circle cx="138.65" cy="427.683" r="4.12556" fill="white"/>
<circle cx="199.159" cy="427.683" r="4.12556" fill="white"/>
<circle cx="17.6336" cy="488.191" r="4.12556" fill="white"/>
<circle cx="78.142" cy="488.191" r="4.12556" fill="white"/>
<circle cx="138.65" cy="488.191" r="4.12556" fill="white"/>
<circle cx="199.159" cy="488.191" r="4.12556" fill="white"/>
<circle cx="17.6336" cy="548.699" r="4.12556" fill="white"/>
<circle cx="78.142" cy="548.699" r="4.12556" fill="white"/>
<circle cx="138.65" cy="548.699" r="4.12556" fill="white"/>
<circle cx="199.159" cy="548.699" r="4.12556" fill="white"/>
</svg>
