<svg width="32" height="32" viewBox="0 0 32 32" fill="none" xmlns="http://www.w3.org/2000/svg">
<path d="M12.1797 27.6981V23.6211C12.1797 22.5804 13.0296 21.7367 14.0779 21.7367H17.9101C18.4136 21.7367 18.8964 21.9353 19.2524 22.2887C19.6084 22.6421 19.8084 23.1214 19.8084 23.6211V27.6981C19.8052 28.1308 19.9761 28.5468 20.2832 28.8539C20.5902 29.161 21.0081 29.3337 21.4439 29.3336H24.0584C25.2795 29.3368 26.4517 28.8575 27.3162 28.0014C28.1808 27.1454 28.6667 25.983 28.6667 24.7708V13.1561C28.6666 12.1769 28.2294 11.2481 27.4728 10.6199L18.5787 3.56815C17.0315 2.33174 14.8148 2.37166 13.3138 3.66296L4.62268 10.6199C3.83032 11.2296 3.35673 12.1612 3.33333 13.1561V24.7589C3.33333 27.2855 5.3965 29.3336 7.94156 29.3336H10.4964C11.4016 29.3337 12.1373 28.6086 12.1439 27.71L12.1797 27.6981Z" fill="white"/>
</svg>
