<svg width="32" height="32" viewBox="0 0 32 32" fill="none" xmlns="http://www.w3.org/2000/svg">
<circle cx="16" cy="16" r="15.5" stroke="white"/>
<path d="M22.8189 9H9.18111C8.86786 9 8.56744 9.12039 8.34594 9.3347C8.12444 9.549 8 9.83966 8 10.1427V23.3373C8 23.6403 8.12444 23.931 8.34594 24.1453C8.56744 24.3596 8.86786 24.48 9.18111 24.48H22.8189C23.1321 24.48 23.4326 24.3596 23.6541 24.1453C23.8756 23.931 24 23.6403 24 23.3373V10.1427C24 9.83966 23.8756 9.549 23.6541 9.3347C23.4326 9.12039 23.1321 9 22.8189 9ZM12.7689 22.187H10.3633V14.7942H12.7689V22.187ZM11.5644 13.7698C11.2916 13.7683 11.0253 13.6886 10.7992 13.5409C10.573 13.3931 10.3972 13.1838 10.2939 12.9395C10.1906 12.6951 10.1644 12.4266 10.2187 12.1679C10.2729 11.9092 10.4052 11.6718 10.5988 11.4857C10.7923 11.2996 11.0385 11.1732 11.3063 11.1223C11.5741 11.0715 11.8514 11.0986 12.1033 11.2001C12.3552 11.3016 12.5704 11.473 12.7216 11.6928C12.8729 11.9125 12.9535 12.1706 12.9533 12.4346C12.9559 12.6114 12.9217 12.7868 12.8527 12.9505C12.7837 13.1142 12.6813 13.2627 12.5517 13.3873C12.4221 13.5119 12.2679 13.61 12.0983 13.6757C11.9287 13.7414 11.7471 13.7734 11.5644 13.7698ZM21.6356 22.1935H19.2311V18.1547C19.2311 16.9636 18.7078 16.596 18.0322 16.596C17.3189 16.596 16.6189 17.1163 16.6189 18.1848V22.1935H14.2133V14.7996H16.5267V15.8241H16.5578C16.79 15.3694 17.6033 14.5922 18.8444 14.5922C20.1867 14.5922 21.6367 15.3629 21.6367 17.6204L21.6356 22.1935Z" fill="white"/>
</svg>
