<svg width="24" height="24" viewBox="0 0 24 24" fill="none" xmlns="http://www.w3.org/2000/svg">
<path fill-rule="evenodd" clip-rule="evenodd" d="M3.59998 5.9998C3.59998 5.68154 3.7264 5.37632 3.95145 5.15128C4.17649 4.92623 4.48172 4.7998 4.79998 4.7998H19.2C19.5182 4.7998 19.8235 4.92623 20.0485 5.15128C20.2735 5.37632 20.4 5.68154 20.4 5.9998C20.4 6.31806 20.2735 6.62329 20.0485 6.84833C19.8235 7.07338 19.5182 7.1998 19.2 7.1998H4.79998C4.48172 7.1998 4.17649 7.07338 3.95145 6.84833C3.7264 6.62329 3.59998 6.31806 3.59998 5.9998ZM3.59998 11.9998C3.59998 11.6815 3.7264 11.3763 3.95145 11.1513C4.17649 10.9262 4.48172 10.7998 4.79998 10.7998H12C12.3182 10.7998 12.6235 10.9262 12.8485 11.1513C13.0735 11.3763 13.2 11.6815 13.2 11.9998C13.2 12.3181 13.0735 12.6233 12.8485 12.8483C12.6235 13.0734 12.3182 13.1998 12 13.1998H4.79998C4.48172 13.1998 4.17649 13.0734 3.95145 12.8483C3.7264 12.6233 3.59998 12.3181 3.59998 11.9998ZM3.59998 17.9998C3.59998 17.6815 3.7264 17.3763 3.95145 17.1513C4.17649 16.9262 4.48172 16.7998 4.79998 16.7998H19.2C19.5182 16.7998 19.8235 16.9262 20.0485 17.1513C20.2735 17.3763 20.4 17.6815 20.4 17.9998C20.4 18.3181 20.2735 18.6233 20.0485 18.8483C19.8235 19.0734 19.5182 19.1998 19.2 19.1998H4.79998C4.48172 19.1998 4.17649 19.0734 3.95145 18.8483C3.7264 18.6233 3.59998 18.3181 3.59998 17.9998Z" fill="#7854F7"/>
</svg>
