<svg width="107" height="33" viewBox="0 0 107 33" fill="none" xmlns="http://www.w3.org/2000/svg">
<path fill-rule="evenodd" clip-rule="evenodd" d="M19.7909 12.5625C19.0666 17.3391 14.9373 21 9.95176 21C4.45556 21 0 16.5508 0 11.0625C0 5.57419 4.45556 1.125 9.95176 1.125C14.9373 1.125 19.0666 4.78594 19.7909 9.5625H15.2049C14.5506 7.28887 12.4465 5.625 9.95176 5.625C6.93425 5.625 4.48805 8.0595 4.48805 11.0625C4.48805 14.0655 6.93425 16.5 9.95176 16.5C12.4465 16.5 14.5506 14.8361 15.2049 12.5625H19.7909Z" fill="#7854F7"/>
<path d="M26.1575 6H21.7201V20.4375H26.1575V6Z" fill="#7854F7"/>
<path d="M82.0117 9.65626C83.3614 9.65626 83.9499 10.9431 84.1478 11.5284C84.2109 11.7152 84.2304 11.9113 84.2304 12.1078V20.4371H88.6679V11.8121C88.6679 11.8121 88.6679 5.62388 82.9763 5.62463C80.2753 5.62501 79.0212 7.21838 79.0212 7.21838V6.00001H74.3908V20.4375H79.0212V12.1423C79.0212 11.8001 79.0808 11.4565 79.2687 11.167C79.6459 10.5855 80.4873 9.65626 82.0117 9.65626Z" fill="#7854F7"/>
<path d="M35.9006 5.62499C34.6738 5.71181 33.0066 6.84412 33.0066 6.84412V5.99999H28.8586V20.4375H33.1031V12.4093C33.1031 11.8965 33.2409 11.3882 33.5623 10.9815C33.8322 10.6399 34.1903 10.2472 34.5501 10.0316C35.6765 9.35643 37.7815 9.72805 37.7815 9.72805V5.79056C37.7815 5.79056 37.4121 5.70993 36.8314 5.65331C36.5167 5.62237 36.1829 5.60531 35.9006 5.62499Z" fill="#7854F7"/>
<path d="M23.9388 5.25C25.3773 5.25 26.5434 4.11672 26.5434 2.71875C26.5434 1.32078 25.3773 0.1875 23.9388 0.1875C22.5003 0.1875 21.3342 1.32078 21.3342 2.71875C21.3342 4.11672 22.5003 5.25 23.9388 5.25Z" fill="#7854F7"/>
<path fill-rule="evenodd" clip-rule="evenodd" d="M54.8069 14.4375C54.2218 18.0519 51.0762 20.8125 47.2837 20.8125C43.0749 20.8125 39.6628 17.4128 39.6628 13.2188C39.6628 9.02475 43.0749 5.625 47.2837 5.625C51.0762 5.625 54.2218 8.38556 54.8069 12H50.3677C49.8993 10.6854 48.6952 9.75 47.2837 9.75C45.4651 9.75 43.9907 11.3031 43.9907 13.2188C43.9907 15.1344 45.4651 16.6875 47.2837 16.6875C48.6952 16.6875 49.8993 15.7521 50.3677 14.4375H54.8069Z" fill="#7854F7"/>
<path fill-rule="evenodd" clip-rule="evenodd" d="M64.3583 21C68.8336 21 72.4615 17.4743 72.4615 13.125C72.4615 8.77575 68.8336 5.25 64.3583 5.25C59.883 5.25 56.2551 8.77575 56.2551 13.125C56.2551 17.4743 59.883 21 64.3583 21ZM64.3583 16.875C66.3829 16.875 68.024 15.1961 68.024 13.125C68.024 11.0539 66.3829 9.375 64.3583 9.375C62.3338 9.375 60.6926 11.0539 60.6926 13.125C60.6926 15.1961 62.3338 16.875 64.3583 16.875Z" fill="#7854F7"/>
<path d="M100.727 14.9049C100.727 14.9049 97.7357 14.8125 96.193 13.6862C95.0738 12.8691 94.7983 11.8582 94.746 10.4987C94.669 8.49712 95.5822 6.94499 97.4471 6.09243C99.0864 5.34318 102.037 5.23274 104.296 6.27993C106.321 7.21874 106.997 10.4987 106.997 10.4987H102.656C102.656 10.4987 102.463 9.21674 100.727 9.27993C100.003 9.30637 99.087 9.27993 99.087 10.1237C99.087 11.1549 100.727 11.1549 100.727 11.1549V14.9049Z" fill="#7854F7"/>
<path d="M100.727 11.1549C100.727 11.1549 104.045 11.2182 105.356 12.4693C106.354 13.4228 106.943 14.2973 106.996 15.657C107.072 17.6586 106.16 19.2103 104.296 20.0629C102.656 20.8122 98.9589 21.0563 96.7712 19.875C94.1666 18.4688 94.4547 15.657 94.4547 15.657H98.7959C98.7959 15.657 98.9888 16.939 100.725 16.8758C101.449 16.8493 102.655 16.8758 102.655 16.032C102.655 15.0008 100.727 14.9049 100.727 14.9049V11.1549Z" fill="#7854F7"/>
<path d="M92.912 0H98.3141L93.4094 4.33781H89.9366L92.912 0Z" fill="#4C82F4"/>
<path fill-rule="evenodd" clip-rule="evenodd" d="M8.29613 21.375C12.3616 28.3179 20.044 33 28.8516 33C37.6592 33 45.3416 28.3179 49.4071 21.375H44.7298C40.0163 23.8853 34.6055 25.3125 28.8516 25.3125C23.0978 25.3125 17.687 23.8853 12.9734 21.375H8.29613Z" fill="#4C82F4"/>
</svg>
