<svg width="32" height="32" viewBox="0 0 32 32" fill="none" xmlns="http://www.w3.org/2000/svg">
<path d="M28.5805 3.44297C27.9136 2.75846 26.9265 2.50344 26.0061 2.77188L4.544 9.01302C3.57294 9.2828 2.88465 10.0572 2.69925 11.0411C2.50983 12.0423 3.17144 13.3134 4.03579 13.8449L10.7465 17.9694C11.4348 18.3922 12.3232 18.2862 12.8928 17.7117L20.5772 9.97939C20.9641 9.57674 21.6043 9.57674 21.9911 9.97939C22.378 10.3686 22.378 10.9995 21.9911 11.4021L14.2933 19.1358C13.7224 19.7089 13.6157 20.6014 14.0359 21.294L18.1362 28.072C18.6164 28.8773 19.4434 29.3337 20.3505 29.3337C20.4572 29.3337 20.5772 29.3337 20.6839 29.3202C21.7244 29.186 22.5514 28.4747 22.8582 27.468L29.2208 6.03338C29.5009 5.1207 29.2474 4.12748 28.5805 3.44297Z" fill="white"/>
</svg>
