<svg width="107" height="33" viewBox="0 0 107 33" fill="none" xmlns="http://www.w3.org/2000/svg">
<path d="M8.85447 21.7659C14.7738 30.2434 30.7763 42.1119 47.432 21.7659C41.7168 25.6945 26 31.1946 8.85447 21.7659Z" fill="#4C82F4"/>
<path d="M4.58032 10.9999C4.58032 7.34259 7.19379 5.54122 9.80727 5.56852C11.9358 5.59581 14.0912 6.85131 14.7109 9.3623H19.3721C18.7793 4.44949 14.6031 1.11969 9.75338 1.11969C4.36477 1.11969 0 5.37746 0 10.9999C0 16.6224 4.36477 20.7982 9.75338 20.7982C14.657 20.7982 18.6985 17.4957 19.399 12.501H14.7378C14.1451 15.0666 11.9897 16.3767 9.80727 16.404C7.19379 16.4313 4.58032 14.6299 4.58032 10.9999Z" fill="#7854F7"/>
<path d="M25.1854 5.75957V20.5253H20.8745V5.75957H25.1854ZM20.4703 2.51165C20.4703 4.14926 21.8175 4.94077 23.1107 4.91348C24.3501 4.88618 25.5626 4.09467 25.5626 2.51165C25.5626 0.792169 24.2154 -0.026633 22.9221 0.00066008C21.6828 0.0279531 20.4703 0.87405 20.4703 2.51165Z" fill="#7854F7"/>
<path d="M32.3702 12.3373C32.3702 10.3449 33.9329 9.52606 35.4687 9.49877C35.9537 9.49877 36.4656 9.58065 36.8967 9.71712L36.9506 5.67769C36.3848 5.54122 35.819 5.45934 35.307 5.45934C34.1215 5.45934 33.0708 5.84145 32.1278 6.74214L31.9661 5.75957H28.1402V20.5253H32.3702V12.3373Z" fill="#7854F7"/>
<path d="M49.4588 14.2478C48.3541 17.9051 43.1272 17.3047 43.1272 13.1288C43.1272 8.9529 48.3811 8.37974 49.4588 12.0371H53.6619C52.4764 2.94835 38.9779 3.5761 38.9779 13.1288C38.9779 22.6815 52.4495 23.3092 53.6619 14.2478H49.4588Z" fill="#7854F7"/>
<path d="M71.0765 13.1561C71.0765 2.64812 55.5304 2.62083 55.5304 13.1561C55.5304 23.6095 71.0765 23.6641 71.0765 13.1561ZM59.7874 13.1561C59.7874 8.16139 66.8195 8.1341 66.8195 13.1561C66.8195 18.1235 59.7874 18.0962 59.7874 13.1561Z" fill="#7854F7"/>
<path d="M73.1266 5.75957V20.5253H77.6261V12.501C77.6261 10.6178 79.1349 9.52606 80.4013 9.52606C81.5598 9.52606 82.6645 10.4267 82.6645 12.4192V20.5253H86.9754V12.3919C87.0023 8.70726 85.8707 5.59581 81.7215 5.54122C80.1588 5.54122 78.4344 5.92333 77.4106 7.23342V5.75957H73.1266Z" fill="#7854F7"/>
<path d="M94.4526 1.39262H90.1417L87.6899 7.67011H91.7314L94.4526 2.70271V1.39262Z" fill="#7854F7"/>
<path d="M94.8217 10.5086C94.8217 13.7565 97.6777 14.821 100.426 15.0666C101.126 15.1212 102.743 14.9847 102.743 16.0492C102.743 16.5678 101.989 16.9772 100.884 16.9499C99.914 16.9499 98.8901 16.5405 98.8632 15.5579H94.6062C94.6601 19.3244 97.3005 20.9074 100.776 20.9074C104.009 20.9074 107 19.6519 107 15.94C107 12.4465 103.902 11.1364 100.857 11.0545C100.237 11.0272 99.1057 10.9999 99.1057 10.2357C99.1057 9.44418 99.9679 9.22583 100.588 9.22583C101.477 9.22583 102.608 9.30772 102.635 10.454H106.704C106.677 7.01507 103.955 5.40476 100.83 5.40476C97.5699 5.40476 94.8217 6.93319 94.8217 10.5086Z" fill="#7854F7"/>
</svg>
