<svg width="88" height="27" viewBox="0 0 88 27" fill="none" xmlns="http://www.w3.org/2000/svg">
<path d="M7.23 17.5445C12.0633 24.3779 25.13 33.9445 38.73 17.5445C34.0633 20.7112 21.23 25.1445 7.23 17.5445Z" fill="#4C82F4"/>
<path d="M3.74 8.86653C3.74 5.91853 5.874 4.46653 8.008 4.48853C9.746 4.51053 11.506 5.52253 12.012 7.54653H15.818C15.334 3.58653 11.924 0.902532 7.964 0.902532C3.564 0.902532 0 4.33453 0 8.86653C0 13.3985 3.564 16.7645 7.964 16.7645C11.968 16.7645 15.268 14.1025 15.84 10.0765H12.034C11.55 12.1445 9.79 13.2005 8.008 13.2225C5.874 13.2445 3.74 11.7925 3.74 8.86653Z" fill="#7854F7"/>
<path d="M20.5648 4.64253V16.5445H17.0448V4.64253H20.5648ZM16.7148 2.02453C16.7148 3.34453 17.8148 3.98253 18.8708 3.96053C19.8828 3.93853 20.8728 3.30053 20.8728 2.02453C20.8728 0.638532 19.7728 -0.0214677 18.7168 0.000532061C17.7048 0.0225318 16.7148 0.704532 16.7148 2.02453Z" fill="#7854F7"/>
<path d="M26.4315 9.94453C26.4315 8.33853 27.7075 7.67853 28.9615 7.65653C29.3575 7.65653 29.7755 7.72253 30.1275 7.83253L30.1715 4.57653C29.7095 4.46653 29.2475 4.40053 28.8295 4.40053C27.8615 4.40053 27.0035 4.70853 26.2335 5.43453L26.1015 4.64253H22.9775V16.5445H26.4315V9.94453Z" fill="#7854F7"/>
<path d="M40.3849 11.4845C39.4829 14.4325 35.2149 13.9485 35.2149 10.5825C35.2149 7.21653 39.5049 6.75453 40.3849 9.70253H43.8169C42.8489 2.37653 31.8269 2.88253 31.8269 10.5825C31.8269 18.2825 42.8269 18.7885 43.8169 11.4845H40.3849Z" fill="#7854F7"/>
<path d="M58.0366 10.6045C58.0366 2.13453 45.3426 2.11253 45.3426 10.6045C45.3426 19.0305 58.0366 19.0745 58.0366 10.6045ZM48.8186 10.6045C48.8186 6.57853 54.5606 6.55653 54.5606 10.6045C54.5606 14.6085 48.8186 14.5865 48.8186 10.6045Z" fill="#7854F7"/>
<path d="M59.7106 4.64253V16.5445H63.3846V10.0765C63.3846 8.55853 64.6166 7.67853 65.6506 7.67853C66.5966 7.67853 67.4986 8.40453 67.4986 10.0105V16.5445H71.0186V9.98853C71.0406 7.01853 70.1166 4.51053 66.7286 4.46653C65.4526 4.46653 64.0446 4.77453 63.2086 5.83053V4.64253H59.7106Z" fill="#7854F7"/>
<path d="M77.1241 1.12253H73.6041L71.6021 6.18253H74.9021L77.1241 2.17853V1.12253Z" fill="#7854F7"/>
<path d="M77.4255 8.47053C77.4255 11.0885 79.7575 11.9465 82.0015 12.1445C82.5735 12.1885 83.8935 12.0785 83.8935 12.9365C83.8935 13.3545 83.2775 13.6845 82.3755 13.6625C81.5835 13.6625 80.7475 13.3325 80.7255 12.5405H77.2495C77.2935 15.5765 79.4495 16.8525 82.2875 16.8525C84.9275 16.8525 87.3695 15.8405 87.3695 12.8485C87.3695 10.0325 84.8395 8.97653 82.3535 8.91053C81.8475 8.88853 80.9235 8.86653 80.9235 8.25053C80.9235 7.61253 81.6275 7.43653 82.1335 7.43653C82.8595 7.43653 83.7835 7.50253 83.8055 8.42653H87.1275C87.1055 5.65453 84.8835 4.35653 82.3315 4.35653C79.6695 4.35653 77.4255 5.58853 77.4255 8.47053Z" fill="#7854F7"/>
</svg>
