<?xml version="1.0" standalone="no"?>
<!DOCTYPE svg PUBLIC "-//W3C//DTD SVG 20010904//EN"
 "http://www.w3.org/TR/2001/REC-SVG-20010904/DTD/svg10.dtd">
<svg version="1.0" xmlns="http://www.w3.org/2000/svg"
 width="768.000000pt" height="768.000000pt" viewBox="0 0 768.000000 768.000000"
 preserveAspectRatio="xMidYMid meet">
<metadata>
Created by potrace 1.14, written by Peter Selinger 2001-2017
</metadata>
<g transform="translate(0.000000,768.000000) scale(0.100000,-0.100000)"
fill="#000000" stroke="none">
<path d="M3427 7674 c-2 -2 -35 -6 -73 -9 -57 -5 -159 -19 -279 -40 -113 -19
-406 -103 -490 -140 -16 -7 -75 -33 -130 -56 -149 -64 -276 -133 -420 -226
-85 -56 -249 -175 -265 -192 -3 -3 -39 -35 -80 -71 -200 -174 -391 -394 -546
-630 -61 -94 -82 -129 -143 -244 -17 -33 -36 -65 -42 -73 -6 -7 -9 -13 -5 -13
3 0 -3 -17 -14 -37 -69 -136 -162 -394 -204 -568 -4 -15 -16 -64 -27 -110 -5
-22 -11 -51 -13 -65 -2 -14 -9 -52 -14 -85 -29 -164 -37 -278 -37 -515 0 -234
10 -374 35 -505 5 -27 12 -66 15 -85 25 -156 122 -474 196 -642 97 -221 243
-478 350 -617 75 -97 124 -159 140 -176 10 -11 42 -47 71 -79 59 -66 169 -174
238 -233 24 -21 52 -46 62 -55 10 -10 20 -18 23 -18 5 0 38 -27 83 -67 14 -13
28 -23 32 -23 3 0 15 -8 26 -17 11 -10 27 -22 36 -28 9 -5 47 -31 84 -56 38
-25 89 -56 114 -70 25 -13 47 -27 50 -30 22 -25 375 -182 495 -219 22 -7 45
-15 50 -19 6 -3 19 -7 30 -8 11 -2 31 -7 45 -13 33 -12 127 -35 220 -54 67
-13 90 -18 165 -31 188 -33 627 -38 774 -10 11 2 46 6 78 10 32 3 76 10 98 15
22 5 56 12 75 15 19 4 40 8 45 9 6 1 37 8 70 15 33 7 67 17 76 22 9 4 27 10
40 13 13 2 56 16 94 29 39 13 73 25 78 25 4 1 21 9 37 17 16 8 32 15 35 14 13
-2 128 49 245 109 69 35 140 71 158 80 17 9 32 20 32 24 0 4 5 8 10 8 10 0
219 136 230 149 3 4 24 20 46 36 100 73 278 236 394 362 95 103 280 342 280
362 0 6 4 11 8 11 5 0 19 19 32 43 13 23 32 55 44 72 11 16 21 36 23 44 1 8 6
17 11 20 9 5 152 282 152 294 0 2 8 22 17 43 9 22 17 41 18 44 1 3 7 18 14 34
12 29 70 200 77 226 2 8 17 65 34 125 16 61 28 116 25 123 -2 6 -1 12 3 12 7
0 13 27 15 73 1 9 4 17 7 17 3 0 6 10 6 23 1 12 3 33 5 47 l4 25 -689 0 -688
0 -34 -94 c-32 -90 -112 -270 -125 -281 -3 -3 -9 -12 -13 -20 -39 -82 -198
-287 -281 -362 -11 -10 -43 -38 -70 -63 -28 -25 -68 -58 -90 -73 -22 -15 -41
-30 -43 -34 -2 -5 -10 -8 -17 -8 -7 0 -15 -4 -17 -8 -5 -13 -114 -76 -209
-121 -80 -38 -232 -93 -290 -105 -97 -20 -181 -35 -223 -41 -27 -3 -53 -8 -57
-11 -4 -2 -10 0 -13 5 -3 5 -21 6 -38 2 -73 -14 -245 1 -408 35 -125 26 -319
94 -354 123 -8 7 -21 14 -28 15 -35 6 -186 102 -283 179 -225 181 -393 406
-509 682 -9 22 -17 43 -16 48 0 4 -6 20 -14 35 -17 33 -61 204 -72 277 -3 28
-9 59 -12 70 -11 46 -9 374 4 450 32 198 75 343 147 495 38 82 115 215 143
249 7 9 33 43 58 76 127 168 336 343 536 447 111 57 292 127 340 131 11 1 20
4 20 7 0 3 8 6 18 6 9 1 35 4 57 8 222 42 430 40 640 -5 254 -54 464 -153 670
-315 115 -90 228 -204 286 -286 13 -18 26 -35 29 -38 16 -13 105 -159 145
-237 33 -66 70 -148 66 -148 0 0 13 -36 28 -80 l28 -79 674 -1 c371 0 682 1
691 3 10 3 16 7 14 11 -3 3 -8 27 -11 51 -12 73 -14 83 -20 115 -28 140 -126
466 -147 489 -4 6 -8 15 -8 22 0 6 -11 37 -25 68 -14 31 -26 59 -27 64 -9 29
-141 275 -189 352 -33 52 -65 104 -72 115 -60 97 -242 318 -366 443 l-64 65
64 60 c35 32 71 64 80 71 15 10 117 100 177 156 15 14 63 56 107 94 44 39 89
78 100 88 11 10 32 29 46 41 14 12 48 42 75 67 28 25 77 68 110 97 32 28 82
72 109 97 l50 46 -708 0 c-665 0 -708 -1 -714 -17 -4 -10 -12 -23 -17 -29 -6
-6 -49 -68 -96 -137 -47 -70 -90 -127 -96 -127 -6 0 -42 15 -80 33 -38 19 -91
42 -119 52 -27 10 -54 22 -60 25 -5 4 -55 22 -110 40 -55 17 -107 34 -115 37
-8 4 -19 7 -25 8 -5 2 -46 12 -90 23 -44 11 -105 25 -135 31 -30 6 -66 14 -80
17 -50 11 -189 27 -242 28 -21 1 -38 3 -38 6 0 6 -427 9 -433 4z"/>
<path d="M997 1496 c16 -33 163 -257 173 -266 3 -3 19 -23 35 -45 16 -22 34
-44 39 -50 6 -5 29 -32 50 -60 41 -52 270 -284 341 -345 35 -31 95 -79 173
-138 12 -9 29 -23 37 -29 7 -7 15 -13 17 -13 2 0 55 -34 118 -76 134 -88 407
-225 565 -282 228 -83 425 -134 635 -162 159 -21 192 -23 405 -24 192 -1 275
3 400 19 53 6 162 23 194 30 125 27 164 36 170 40 4 2 19 6 34 9 38 7 230 67
242 76 6 4 23 10 40 14 16 4 54 18 83 32 29 13 55 24 58 24 3 0 64 30 137 66
73 37 142 72 154 78 13 6 23 14 23 19 0 4 5 7 11 7 20 0 242 153 363 250 105
85 264 235 362 342 82 90 173 209 261 343 88 134 103 158 103 165 0 4 -136 6
-302 5 l-303 -2 -90 -47 c-49 -27 -99 -53 -110 -59 -11 -6 -22 -12 -25 -12
-14 -1 -76 -30 -81 -37 -3 -5 -16 -10 -27 -11 -12 -1 -22 -4 -22 -8 0 -4 -12
-10 -27 -14 -15 -3 -45 -15 -68 -25 -86 -38 -427 -151 -499 -165 -12 -2 -21
-4 -21 -5 0 -1 -9 -3 -20 -5 -11 -2 -29 -5 -40 -8 -76 -19 -157 -36 -195 -42
-24 -4 -48 -9 -52 -11 -4 -3 -26 -6 -50 -9 -24 -2 -54 -6 -68 -9 -45 -10 -139
-20 -280 -32 -190 -16 -721 -8 -814 12 -11 3 -43 7 -71 10 -27 2 -61 7 -75 9
-14 3 -41 8 -60 11 -19 3 -46 7 -60 10 -14 2 -41 7 -60 10 -19 3 -51 9 -70 14
-35 9 -49 12 -130 29 -25 5 -57 14 -72 20 -16 6 -28 8 -28 5 0 -2 -8 0 -18 5
-11 6 -30 12 -43 15 -26 5 -185 55 -259 81 -152 54 -343 138 -490 214 l-105
55 -302 1 -301 1 15 -30z"/>
</g>
</svg>
